<svg width="162" height="88" viewBox="0 0 162 88" fill="none" xmlns="http://www.w3.org/2000/svg">
<path d="M148.809 40.6055C148.755 40.6055 148.704 40.6212 148.65 40.6212C149.651 38.3136 150.211 35.7635 150.211 33.0804C150.211 22.5672 141.688 14.0409 131.172 14.0409C127.456 14.0409 124 15.1204 121.069 16.9664C117.106 7.32935 107.635 0.539581 96.5723 0.539581C81.9422 0.539581 70.082 12.3982 70.082 27.0338C70.082 28.1367 70.1712 29.2162 70.3026 30.2878C70.2283 30.2878 70.1563 30.28 70.082 30.28C60.2728 30.28 52.3207 38.2275 52.3207 48.0367C52.3207 57.8459 60.2728 65.8011 70.082 65.8011H148.809C155.766 65.8011 161.405 60.1612 161.405 53.2072C161.405 46.2454 155.766 40.6055 148.809 40.6055Z" fill="#C2CEF2"/>
<path d="M117.246 57.1804C117.18 57.1804 117.12 57.1961 117.054 57.1961C118.261 54.4035 118.937 51.3294 118.937 48.0988C118.937 35.4188 108.659 25.148 95.9818 25.148C91.5012 25.148 87.3342 26.4465 83.8008 28.6681C79.0214 17.0519 67.604 8.86204 54.2638 8.86204C36.6245 8.86204 22.3245 23.169 22.3245 40.8083C22.3245 42.1381 22.4324 43.4445 22.5912 44.7352C22.5013 44.7352 22.4145 44.7195 22.3245 44.7195C10.498 44.7195 0.910126 54.3097 0.910126 66.1362C0.910126 77.9628 10.498 87.5506 22.3245 87.5506H117.246C125.634 87.5506 132.434 80.7515 132.434 72.3636C132.434 63.9765 125.634 57.1804 117.246 57.1804Z" fill="white"/>
</svg>
